<?xml version="1.0" encoding="UTF-8"?>
<svg xmlns="http://www.w3.org/2000/svg"
     width="1024" height="1024" viewBox="0 0 1024 1024"
     role="img" aria-labelledby="title description">
  <title id="title">LVRead 无限阅读图标透明版</title>
  <desc id="description">透明背景的暖米白色无限书本图形。</desc>
  <defs>
    <linearGradient id="paperGradient" x1="0%" y1="0%" x2="100%" y2="100%">
      <stop offset="0%" stop-color="#F5E9D0"/>
      <stop offset="50%" stop-color="#F2E5CB"/>
      <stop offset="100%" stop-color="#EFE0C2"/>
    </linearGradient>
  </defs>
  <g id="layer-infinity" transform="matrix(0.907 0 0 0.777 37.2 107)">
    <path d="M490 450 C410 372 330 345 250 380 C145 425 135 565 195 638
             C270 728 395 704 484 610 L650 436 C728 354 838 356 876 454
             C916 557 856 665 758 680 C680 692 620 649 560 585"
          fill="none" stroke="url(#paperGradient)" stroke-width="74"
          stroke-linecap="butt" stroke-linejoin="round"
          vector-effect="non-scaling-stroke"/>
  </g>
  <g id="layer-book-spine" transform="matrix(0.907 0 0 0.777 37.2 107)"
     fill="none" stroke="#F2E5CB" stroke-linecap="round"
     vector-effect="non-scaling-stroke">
    <path d="M481 638 L481 724" stroke-width="8"/>
    <path d="M512 597 L512 724" stroke-width="10"/>
    <path d="M543 638 L543 724" stroke-width="8"/>
  </g>
</svg>
